<svg width="53" height="104" viewBox="0 0 53 104" fill="none" xmlns="http://www.w3.org/2000/svg">
<path id="Vector" d="M-34.8248 89.2742C-34.8248 89.2742 -34.8015 89.1121 -34.8325 88.8877C-35.1084 87.9222 -35.3533 87.1811 -35.5983 86.44C-35.6215 86.2569 -35.6447 86.0738 -35.7191 85.6404C-35.862 85.2609 -35.9537 85.1317 -36.0454 85.0025C-37.0882 80.8709 -38.0871 76.7277 -39.1819 72.6099C-43.1464 57.6983 -47.1482 42.7967 -51.1247 27.8884C-52.433 22.9836 -51.0183 20.6533 -46.1563 19.3568C-29.0371 14.792 -11.9276 10.1907 5.18511 5.6018C6.16471 5.33911 7.14065 5.06282 8.40851 4.68186C9.77694 4.34215 10.8617 4.14049 11.9322 3.88014C17.2155 2.59527 22.4949 1.29491 27.7758 0C27.9601 0.0451005 28.1444 0.090201 28.562 0.167708C28.7953 0.200127 28.996 0.170616 28.996 0.170616C29.1748 0.227084 29.3536 0.283551 29.7566 0.465319C30.8861 1.76058 31.7915 2.93053 32.6968 4.10049C34.3101 10.2197 35.9116 16.342 37.5389 22.4575C42.3195 40.4227 47.1423 58.3768 51.8753 76.3545C53.0934 80.9812 51.6157 83.2033 47.0464 84.4121C40.9864 86.0153 34.9446 87.6876 28.5871 89.3841C27.0869 89.8095 25.8946 90.1811 24.7023 90.5527C24.5463 90.5559 24.3902 90.5592 23.9721 90.6233C19.3813 91.8952 15.0526 93.1063 10.7238 94.3174C10.7238 94.3174 10.7521 94.3089 10.5725 94.3015C7.97921 94.9854 5.56559 95.6767 3.15196 96.3679C2.99292 96.376 2.83389 96.3841 2.43228 96.4246C1.95589 96.5634 1.7221 96.6699 1.48829 96.7764C1.48829 96.7764 1.34243 96.7529 1.12237 96.7823C0.0347061 97.0757 -0.832874 97.3398 -1.70046 97.6039C-1.88791 97.6145 -2.07535 97.6251 -2.52119 97.6716C-2.99866 97.8168 -3.21775 97.9261 -3.43683 98.0354C-3.611 98.0572 -3.78518 98.079 -4.18535 98.1483C-4.52336 98.2755 -4.63538 98.3551 -4.74741 98.4347C-4.90404 98.4491 -5.06065 98.4635 -5.45806 98.5054C-5.93721 98.6363 -6.17556 98.7397 -6.41391 98.8431C-6.57037 98.8617 -6.72684 98.8803 -7.11541 98.9356C-7.57031 99.0726 -7.79309 99.1729 -8.01589 99.2732C-8.19034 99.2971 -8.3648 99.3211 -8.7715 99.3827C-9.19886 99.5188 -9.39393 99.6171 -9.58903 99.7155C-9.77832 99.7375 -9.96763 99.7595 -10.3907 99.8237C-10.7668 99.8948 -10.8711 99.9737 -10.9375 100.103C-11.1 100.11 -11.2626 100.116 -11.6535 100.173C-12.0025 100.315 -12.123 100.407 -12.2435 100.499C-12.2435 100.499 -12.3615 100.455 -12.5721 100.483C-13.6849 100.81 -14.587 101.11 -15.4892 101.41C-15.6377 101.412 -15.7862 101.414 -16.1736 101.419C-18.1496 101.938 -19.8868 102.455 -21.6241 102.971C-21.8029 102.992 -21.9817 103.013 -22.4424 103.069C-23.511 103.34 -24.2979 103.575 -25.0846 103.81C-25.4811 103.831 -25.8776 103.853 -26.5777 103.87C-27.3068 103.838 -27.7323 103.809 -28.1577 103.781C-28.1577 103.781 -28.1888 103.802 -28.2173 103.719C-28.3595 103.539 -28.4884 103.51 -28.6327 103.55C-28.7857 103.498 -28.9388 103.447 -29.2907 103.269C-30.337 101.795 -31.4647 100.544 -31.9744 99.0783C-33.0908 95.868 -33.8938 92.5489 -34.8248 89.2742ZM-18.0086 16.0691C-26.8764 18.4337 -35.7429 20.8027 -44.6125 23.1602C-47.3723 23.8937 -47.7963 24.5325 -47.0642 27.2739C-43.8613 39.2662 -40.6359 51.2526 -37.419 63.2411C-34.3813 74.5619 -31.3556 85.886 -28.297 97.2012C-27.6469 99.6063 -26.9661 99.9823 -24.5704 99.3557C-20.3636 98.2555 -16.1699 97.1053 -11.9695 95.9807C7.22932 90.8406 26.43 85.7074 45.626 80.5566C48.0599 79.9035 48.4654 79.0842 47.7995 76.6132C44.3191 63.6985 40.8423 50.7828 37.371 37.8656C34.5793 27.4776 31.8242 17.0798 28.9918 6.70289C28.2979 4.16085 27.6139 3.83787 25.1051 4.509C10.8399 8.32493 -3.42036 12.1594 -18.0086 16.0691Z" fill="#4D87E8"/>
</svg>
