<svg width="66" height="165" viewBox="0 0 66 165" fill="none" xmlns="http://www.w3.org/2000/svg">
<path id="Vector" d="M47.9343 133.239C47.2177 133.699 46.501 134.158 45.4561 134.876C41.4007 137.26 37.6735 139.387 33.9464 141.513C33.6171 141.749 33.2878 141.986 32.6202 142.447C30.5785 143.552 28.8752 144.43 27.1719 145.308C26.8901 145.527 26.6083 145.745 26.022 146.191C24.7517 146.901 23.7861 147.385 22.8204 147.868C22.8204 147.868 22.6607 148.012 22.449 148.239C20.0947 149.637 17.9521 150.807 15.8095 151.977C15.8095 151.977 15.6445 152.13 15.4103 152.356C14.1131 153.279 13.0663 154.002 11.9837 154.668C9.91467 155.939 8.64663 155.532 8.65943 152.915C8.70874 142.83 8.79002 132.746 8.85939 122.661C8.82293 121.237 8.78648 119.814 8.62431 117.852C8.44896 117.087 8.35649 116.861 8.35573 116.634C8.23831 81.8989 8.12364 47.1633 8.03963 12.4277C8.03761 11.5931 8.3809 10.7577 8.69105 9.33651C12.3485 11.4135 15.5623 13.182 18.7207 15.0447C24.2927 18.3308 29.8308 21.6744 35.3831 24.9939C35.3831 24.9939 35.3044 25.0345 35.5666 25.0193C36.4326 25.4344 37.0364 25.8647 37.6401 26.295C37.6401 26.295 37.8901 26.3347 38.2366 26.4196C41.6779 28.3417 44.7727 30.179 47.8675 32.0162C48.25 32.1384 48.6325 32.2606 49.3871 32.5421C50.7772 33.3925 51.7952 34.0836 52.8131 34.7746C53.1593 34.9308 53.5055 35.0869 54.1884 35.3833C54.6643 35.7221 54.8036 35.9206 54.9429 36.1191C54.9429 36.1191 54.86 36.1995 55.0828 36.1769C55.4902 36.3312 55.6749 36.5081 55.8595 36.6851C56.1013 36.7558 56.343 36.8264 56.9194 36.9786C57.3918 37.2321 57.5297 37.4044 57.6675 37.5767C57.6675 37.5767 57.6184 37.6051 57.8848 37.5997C62.4153 39.7931 66.3084 43.0081 71.564 42.4922C71.564 40.149 71.564 37.8057 71.564 35.1432C63.8405 30.5953 56.0826 26.428 48.4017 22.1236C36.768 15.604 25.2515 8.87295 13.562 2.45624C6.07582 -1.65314 0.297531 1.765 0.200134 10.3C0.0569992 22.843 0.129028 35.3892 0.197937 47.9335C0.280876 63.0305 0.50795 78.1267 0.579369 93.2237C0.671684 112.737 0.659042 132.25 0.732208 151.763C0.739136 153.61 0.900955 155.479 1.22137 157.297C2.38251 163.884 6.85282 166.449 12.8585 163.626C17.4615 161.463 21.824 158.773 26.2331 156.214C40.5628 147.897 54.8635 139.529 69.1821 131.193C69.7745 130.848 70.4342 130.618 71.3132 130.332C71.564 127.986 71.564 125.642 71.2639 122.941C68.162 123.337 65.3602 124.09 62.5585 124.844C62.5585 124.844 62.3799 124.991 62.1377 125.205C57.2418 128.026 52.5881 130.632 47.9343 133.239Z" fill="#F6BF18"/>
</svg>
