<svg width="61" height="154" viewBox="0 0 61 154" fill="none" xmlns="http://www.w3.org/2000/svg">
<g id="Vector">
<path id="Vector_2" d="M50.5213 131.872C44.7961 136.626 39.6119 142.33 33.2436 145.954C14.5208 156.607 -4.72379 155.598 -23.2984 145.435C-45.0077 133.557 -66.2807 120.884 -87.9283 108.89C-101.028 101.632 -113.543 94.029 -119.833 79.459C-123.894 70.0488 -125.604 60.3956 -124.811 50.0828C-124.168 41.7338 -121.606 34.2714 -117.565 27.08C-109.144 12.0947 -95.8768 4.35169 -79.5081 0.98914C-62.1311 -2.58068 -47.3184 4.0423 -32.8399 12.3699C-16.0397 22.0329 0.942703 31.3818 17.6676 41.1718C26.5197 46.3532 35.5585 51.4811 43.4971 57.8914C53.8457 66.2475 58.9653 78.1382 60.3528 91.2109C61.2432 99.5996 61.1741 108.188 57.4452 116.952C55.0066 122.398 52.764 127.135 50.5213 131.872ZM50.5348 100.361C50.583 81.6431 41.667 67.9661 25.9409 58.8645C-0.0323486 43.8324 -26.2019 29.1257 -52.5783 14.8154C-57.7757 11.9957 -64.3506 10.0899 -70.1726 10.3543C-86.8444 11.1113 -99.6119 19.4085 -108.554 33.5875C-118.74 49.7398 -115.292 70.4133 -103.776 83.4139C-96.1698 91.9998 -86.1898 96.8806 -76.5948 102.401C-56.8875 113.74 -37.2228 125.173 -17.1864 135.906C-10.7649 139.346 -3.35411 142.039 3.82558 142.713C15.4611 143.805 25.6723 139.135 34.482 131.162C43.4731 123.026 49.2193 113.411 50.5348 100.361Z" fill="#DF4B40"/>
</g>
</svg>
