<svg width="48" height="43" viewBox="0 0 48 43" fill="none" xmlns="http://www.w3.org/2000/svg">
<path id="Vector" d="M16.0146 46.1459C13.0465 44.1754 10.22 42.4253 7.84534 40.1941C0.0133705 32.835 -0.739193 23.6537 2.55537 14.2042C5.87545 4.6815 13.7322 0.56979 23.3432 0.162323C32.8099 -0.239017 40.2231 4.00239 44.7156 12.3593C51.072 24.1837 45.757 39.1563 33.607 44.6776C33.0525 44.9296 32.5479 45.2911 32.0238 45.8737C26.806 46.1459 21.5845 46.1459 16.0146 46.1459ZM39.2063 19.6424C36.4679 12.2114 28.9853 6.73648 22.7227 7.58153C15.4763 8.55933 8.91562 15.3149 8.25605 22.4778C7.68965 28.6291 13.4374 36.1832 19.9545 38.5271C29.689 42.0281 42.1461 30.2695 39.2063 19.6424Z" fill="#3DA65B"/>
</svg>
