<svg width="66" height="104" viewBox="0 0 66 104" fill="none" xmlns="http://www.w3.org/2000/svg">
<path id="Vector" d="M87.8408 89.2742C87.8408 89.2742 87.8174 89.1121 87.8485 88.8877C88.1244 87.9222 88.3693 87.1811 88.6142 86.44C88.6375 86.2569 88.6607 86.0738 88.7351 85.6404C88.8779 85.2609 88.9696 85.1317 89.0613 85.0025C90.1042 80.8709 91.1031 76.7277 92.1979 72.6099C96.1624 57.6983 100.164 42.7967 104.141 27.8884C105.449 22.9836 104.034 20.6533 99.1723 19.3568C82.0531 14.792 64.9436 10.1907 47.8309 5.6018C46.8513 5.33911 45.8753 5.06282 44.6075 4.68186C43.2391 4.34215 42.1543 4.14049 41.0838 3.88014C35.8005 2.59527 30.521 1.29491 25.2402 0C25.0559 0.0451005 24.8716 0.090201 24.4539 0.167708C24.2206 0.200127 24.02 0.170616 24.02 0.170616C23.8412 0.227084 23.6624 0.283551 23.2594 0.465319C22.1299 1.76058 21.2245 2.93053 20.3192 4.10049C18.7059 10.2197 17.1044 16.342 15.4771 22.4575C10.6965 40.4227 5.87368 58.3768 1.14067 76.3545C-0.0774078 80.9812 1.40032 83.2033 5.96957 84.4121C12.0296 86.0153 18.0714 87.6876 24.4289 89.3841C25.929 89.8095 27.1214 90.1811 28.3137 90.5527C28.4697 90.5559 28.6257 90.5592 29.0439 90.6233C33.6347 91.8952 37.9634 93.1063 42.2922 94.3174C42.2922 94.3174 42.2639 94.3089 42.4435 94.3015C45.0368 94.9854 47.4504 95.6767 49.864 96.3679C50.0231 96.376 50.1821 96.3841 50.5837 96.4246C51.0601 96.5634 51.2939 96.6699 51.5277 96.7764C51.5277 96.7764 51.6736 96.7529 51.8936 96.7823C52.9813 97.0757 53.8489 97.3398 54.7164 97.6039C54.9039 97.6145 55.0913 97.6251 55.5372 97.6716C56.0147 97.8168 56.2337 97.9261 56.4528 98.0354C56.627 98.0572 56.8012 98.079 57.2013 98.1483C57.5394 98.2755 57.6514 98.3551 57.7634 98.4347C57.92 98.4491 58.0766 98.4635 58.4741 98.5054C58.9532 98.6363 59.1916 98.7397 59.4299 98.8431C59.5864 98.8617 59.7428 98.8803 60.1314 98.9356C60.5863 99.0726 60.8091 99.1729 61.0319 99.2732C61.2063 99.2971 61.3808 99.3211 61.7875 99.3827C62.2148 99.5188 62.4099 99.6171 62.605 99.7155C62.7943 99.7375 62.9836 99.7595 63.4067 99.8237C63.7828 99.8948 63.8871 99.9737 63.9535 100.103C64.116 100.11 64.2786 100.116 64.6695 100.173C65.0185 100.315 65.139 100.407 65.2595 100.499C65.2595 100.499 65.3775 100.455 65.5881 100.483C66.7009 100.81 67.603 101.11 68.5052 101.41C68.6537 101.412 68.8022 101.414 69.1896 101.419C71.1656 101.938 72.9028 102.455 74.6401 102.971C74.8189 102.992 74.9977 103.013 75.4584 103.069C76.527 103.34 77.3138 103.575 78.1006 103.81C78.4971 103.831 78.8935 103.853 79.5937 103.87C80.3228 103.838 80.7483 103.809 81.1737 103.781C81.1737 103.781 81.2048 103.802 81.2333 103.719C81.3755 103.539 81.5044 103.51 81.6487 103.55C81.8017 103.498 81.9548 103.447 82.3067 103.269C83.353 101.795 84.4807 100.544 84.9903 99.0783C86.1067 95.868 86.9098 92.5489 87.8408 89.2742ZM71.0246 16.0691C79.8923 18.4337 88.7589 20.8027 97.6285 23.1602C100.388 23.8937 100.812 24.5325 100.08 27.2739C96.8773 39.2662 93.6519 51.2526 90.435 63.2411C87.3973 74.5619 84.3716 85.886 81.313 97.2012C80.6628 99.6063 79.9821 99.9823 77.5864 99.3557C73.3796 98.2555 69.1859 97.1053 64.9855 95.9807C45.7867 90.8406 26.5859 85.7074 7.38998 80.5566C4.9561 79.9035 4.55058 79.0842 5.21648 76.6132C8.69689 63.6985 12.1737 50.7828 15.645 37.8656C18.4367 27.4776 21.1918 17.0798 24.0242 6.70289C24.7181 4.16085 25.4021 3.83787 27.9109 4.509C42.1761 8.32493 56.4364 12.1594 71.0246 16.0691Z" fill="#4D87E8"/>
</svg>
