<svg width="103" height="104" viewBox="0 0 103 104" fill="none" xmlns="http://www.w3.org/2000/svg">
<path id="Vector" d="M34.6945 87.2699C25.8686 84.8606 17.0287 82.5007 8.22044 80.028C-0.739342 77.5128 -2.15902 72.2116 4.39682 65.615C14.8615 55.0854 25.4054 44.6343 36.2379 33.8423C38.2459 31.6881 39.9317 29.8416 41.6188 28.0184C41.6201 28.0417 41.5737 28.0463 41.7992 27.9539C42.126 27.558 42.2274 27.2545 42.4654 26.7852C44.5965 24.7523 46.5908 22.8852 48.8063 20.9399C49.1069 20.451 49.1863 20.0402 49.2713 19.6507C49.2768 19.672 49.2332 19.6776 49.2332 19.6776C50.2372 19.0465 51.3924 18.5699 52.2202 17.7589C56.8643 13.2092 61.3652 8.51255 66.0379 3.99304C71.8306 -1.60984 77.2495 -0.136169 79.3503 7.66109C86.7717 35.2057 94.1334 62.7664 101.441 90.3412C102.027 92.5504 102.224 94.9106 102.263 97.2065C102.344 101.858 99.7293 104.074 95.0869 102.999C86.9592 101.118 78.8881 98.9863 70.8166 96.871C62.1793 94.6074 53.569 92.2412 44.4692 89.7348C40.8926 88.7898 37.7936 88.0299 34.6945 87.2699ZM86.9385 62.5689C82.153 44.7457 77.3674 26.9225 72.6394 9.31357C51.2603 30.6896 30.261 51.6859 8.87935 73.0646C37.5522 80.7604 66.302 88.4769 96.0033 96.4488C92.8606 84.7543 89.9547 73.9411 86.9385 62.5689Z" fill="#4D87E7"/>
</svg>
