<svg width="81" height="179" viewBox="0 0 81 179" fill="none" xmlns="http://www.w3.org/2000/svg">
<path id="Vector" d="M44.7599 122.855C36.7184 132.859 28.6888 142.872 20.6319 152.863C13.7375 161.413 6.81193 169.937 -0.316739 178.661C-1.78991 177.151 -3.04619 175.452 -4.49071 173.499C5.97731 159.952 16.6601 146.682 27.2833 133.363C41.5972 115.418 55.8656 97.4363 70.1511 79.4683C70.5841 78.9237 71.0046 78.3678 71.4055 77.7993C73.5895 74.7023 73.4435 73.4295 70.5675 71.1386C50.1652 54.8866 29.7343 38.6704 9.36206 22.3807C2.21267 16.664 -4.79748 10.7732 -12.1035 4.79448C-10.4519 3.23367 -8.56799 1.8403 -6.42734 0.257057C-5.33385 1.10905 -4.65621 2.35033 -3.63705 3.16362C22.004 23.6251 47.6844 44.0373 73.3437 64.4758C75.0644 65.8464 76.909 67.1639 78.2864 68.8422C81.2956 72.5087 80.9938 77.0522 77.87 80.9755C68.341 92.9436 58.8303 104.926 49.0186 117.3C48.1346 118.48 47.5446 119.264 46.7618 120.217C45.966 121.21 45.3629 122.032 44.7599 122.855Z" fill="#E04B40"/>
</svg>
