<svg width="72" height="72" viewBox="0 0 72 72" fill="none" xmlns="http://www.w3.org/2000/svg">
<path id="Vector" d="M62.6858 20.5513C62.7161 20.8652 62.7463 21.1791 62.8371 21.9645C65.5308 31.6314 68.1895 40.8194 70.787 50.0247C72.2786 55.3107 71.3294 56.9067 66.2348 58.3795C65.0711 58.7158 64.0224 59.4505 62.9208 60.0019C62.7932 59.8276 62.6217 59.7477 62.0519 59.7448C49.1339 63.3274 36.5824 66.9714 23.9975 70.4958C20.9536 71.3483 17.8118 72.7658 14.6721 70.6501C14.6721 70.6501 14.6388 70.7115 14.6488 70.4419C13.9671 68.4937 13.2755 66.815 12.5839 65.1363C12.4348 64.3443 12.2858 63.5523 12.0103 62.2853C10.258 56.4124 8.63222 51.0144 7.00646 45.6165C6.87922 44.818 6.752 44.0195 6.48994 42.7503C5.18585 38.5096 4.01657 34.7397 2.8473 30.9698C2.83189 30.656 2.81654 30.3422 2.73174 29.5801C2.26149 28.1161 1.86064 27.1004 1.45977 26.0847C1.43002 25.7712 1.40028 25.4577 1.28909 24.6685C0.9869 23.2953 0.762352 22.3987 0.546143 21.5001C-0.666382 16.4607 -0.10302 15.3907 4.73362 13.9056C8.37803 12.7866 12.0565 11.7791 15.7089 10.6853C24.8765 7.93986 34.038 5.17365 43.2019 2.41578C43.5163 2.40565 43.8306 2.39553 44.6246 2.32209C46.8978 1.79002 48.6771 1.25539 50.4876 0.865311C55.4651 -0.206955 56.5353 0.467911 58.0114 5.33904C59.5499 10.4158 61.1261 15.481 62.6858 20.5513ZM33.9952 59.0911C42.5621 56.6406 51.118 54.1506 59.7034 51.7669C61.8797 51.1626 62.2944 50.2044 61.6538 48.0101C58.3117 36.5641 55.1758 25.0579 51.9061 13.5904C50.647 9.1744 50.5581 9.14564 46.2325 10.3803C34.9844 13.5908 23.7796 16.9593 12.4893 20.0124C9.64502 20.7815 9.08106 21.8871 9.86106 24.5713C13.2547 36.2497 16.5445 47.9589 19.7758 59.6835C20.4031 61.9597 21.4734 62.7656 23.7771 62.0514C26.983 61.0574 30.2308 60.1983 33.9952 59.0911Z" fill="#3DA65B"/>
</svg>
