<svg width="47" height="69" viewBox="0 0 47 69" fill="none" xmlns="http://www.w3.org/2000/svg">
<path id="Vector" d="M37.4581 65.366C25.9034 71.751 13.1303 67.2668 9.33241 55.1168C5.87551 44.0578 2.98751 32.7956 0.411762 21.4946C-1.66182 12.3968 5.15949 2.80472 14.5381 0.549118C24.2672 -1.79079 34.4815 3.55424 37.1095 12.6515C40.0702 22.9008 42.9287 33.1878 45.4779 43.5454C47.643 52.342 45.4594 59.8677 37.4581 65.366ZM12.251 34.9774C13.6721 40.1175 14.9639 45.2987 16.5804 50.3765C17.1954 52.3081 18.3437 54.1721 19.6199 55.7707C22.827 59.788 27.0715 61.0527 30.5434 59.3163C36.1884 56.493 39.0511 51.5931 37.7195 46.4429C35.4269 37.5754 32.9962 28.742 30.4915 19.9318C29.865 17.7282 29.0453 15.4558 27.7687 13.5881C25.5507 10.3429 22.5466 7.71202 18.2952 8.13475C12.3062 8.73026 7.29218 16.2121 8.75569 22.0068C9.80549 26.1634 10.9859 30.287 12.251 34.9774Z" fill="#FBBC04"/>
</svg>
