<svg width="143" height="175" viewBox="0 0 143 175" fill="none" xmlns="http://www.w3.org/2000/svg">
<path id="Vector" d="M142.659 131.118C142.567 129.7 142.476 128.281 142.325 126.395C142.29 125.809 142.314 125.691 142.337 125.573C142.288 125.261 142.239 124.948 142.184 124.231C142.213 123.712 142.248 123.598 142.282 123.484C142.223 122.964 142.164 122.445 141.954 121.459C141.608 119.024 141.413 117.055 141.218 115.086C141.047 114.13 140.877 113.174 140.576 111.718C139.909 108.33 139.371 105.443 138.833 102.556C138.721 102.139 138.609 101.722 138.335 100.879C137.441 97.668 136.708 94.884 135.975 92.1001C135.7 91.3449 135.424 90.5897 134.964 89.4209C131.871 82.1729 128.963 75.3386 126.055 68.5043C126.055 68.5043 126.078 68.4049 125.885 68.3145C124.434 65.7359 123.175 63.2478 121.916 60.7596C121.779 60.5722 121.642 60.3848 121.248 60.0483C120.809 59.7629 120.748 59.585 120.809 59.3655C120.809 59.3655 120.587 59.1277 120.366 58.8287C119.958 58.0951 119.773 57.6603 119.587 57.2255C119.587 57.2255 119.354 57.0784 119.136 56.8468C108.206 40.5656 94.9874 26.9912 78.9063 16.2815C74.498 13.3456 69.9295 10.6503 65.4345 7.84458C65.4345 7.84458 65.5312 7.82905 65.2353 7.82735C59.8366 5.67188 54.8471 3.17492 49.6045 1.44472C41.702 -1.16333 35.7062 2.28931 33.3329 10.2219C30.8909 18.3841 28.4315 26.5411 25.9797 34.7003C25.9797 34.7003 26.0816 34.8033 26.0431 35.1597C25.2246 38.3027 24.4744 41.0981 23.6592 43.8744C20.4995 54.6351 17.3191 65.3897 14.1464 76.1466C14.1032 76.4542 14.0601 76.7618 13.9312 77.489C13.6937 78.1351 13.542 78.3616 13.3903 78.588C13.4047 78.814 13.4191 79.04 13.3388 79.6821C11.1982 86.9069 9.15224 93.7155 7.10635 100.524C7.07008 100.834 7.03381 101.144 6.92876 101.877C6.71172 102.523 6.56348 102.746 6.41527 102.968C6.41527 102.968 6.49232 103.132 6.4341 103.477C5.49512 106.567 4.61433 109.313 3.73358 112.059C3.69218 112.485 3.65079 112.912 3.50868 113.797C1.81982 120.923 -1.61261 127.362 0.875854 134.54C0.875854 134.54 0.778824 134.584 1.00369 134.674C3.1183 138.345 6.41566 139.91 10.0795 140.961C20.4403 143.931 30.805 146.887 41.1579 149.885C57.4121 154.591 73.6579 159.327 90.1334 164.039C90.9084 164.263 91.4574 164.497 92.2745 164.709C97.7232 166.257 102.904 167.827 108.316 169.398C108.842 169.481 109.138 169.564 109.695 169.633C115.534 171.057 121.063 172.734 126.701 173.868C132.687 175.071 138.243 171.494 139.479 165.579C140.748 159.503 141.443 153.307 142.376 146.85C142.489 144.666 142.616 142.794 142.633 140.631C142.593 138.891 142.663 137.443 142.732 135.994C142.672 135.482 142.611 134.97 142.525 133.938C142.553 132.652 142.606 131.885 142.659 131.118ZM67.864 18.2681C81.6873 26.4581 93.8186 36.7383 103.853 49.2116C129.965 81.6696 140.421 118.504 133.692 159.891C132.698 166.008 129.625 167.889 123.685 166.178C99.1599 159.112 74.623 152.085 50.0974 145.019C37.6126 141.423 25.1108 137.879 12.6808 134.101C7.15819 132.422 6.23396 130.178 7.81848 124.662C17.3621 91.4416 26.8868 58.2153 36.4241 24.9925C37.6075 20.8701 38.6522 16.6963 40.0779 12.658C41.6699 8.14855 44.5225 6.85362 48.7091 8.79558C55.0156 11.7209 61.1892 14.9327 67.864 18.2681Z" fill="#3CA65A"/>
</svg>
