<svg width="85" height="84" viewBox="0 0 85 84" fill="none" xmlns="http://www.w3.org/2000/svg">
<path id="Vector" d="M6.52577 64.0228C16.2698 78.8312 30.05 85.1161 47.1305 83.3682C63.6814 81.6744 75.2022 72.5263 81.3839 57.0682C91.3977 32.0272 74.2801 2.91687 47.9599 0.382982C31.5658 -1.19531 17.3337 3.62467 7.93473 17.7134C-1.91194 32.4734 -2.09205 48.1438 6.52577 64.0228ZM67.505 65.4514C55.0291 78.5238 37.3759 80.7268 23.3498 70.9619C8.13662 60.3704 2.87779 42.4078 10.963 26.9907C17.6754 14.1912 28.3674 6.45253 43.0785 6.86266C58.015 7.27912 68.6515 15.5009 74.6083 29.001C80.4814 42.3113 77.214 54.3908 67.505 65.4514Z" fill="#DF4B40"/>
</svg>
